<svg width="34" height="34" viewBox="0 0 34 34" fill="none" xmlns="http://www.w3.org/2000/svg">
<path d="M24.1282 19.2516L23.0892 18.0124C22.8019 17.6702 22.3906 17.4561 21.9456 17.4171C21.5007 17.3782 21.0584 17.5176 20.7161 17.8048L20.222 18.2197C19.8798 18.5071 19.4375 18.6466 18.9924 18.6077C18.5474 18.5688 18.1361 18.3545 17.8489 18.0121L16.148 15.9836C15.8608 15.6412 15.7214 15.1986 15.7604 14.7532C15.7994 14.3079 16.0135 13.8962 16.3557 13.6088L16.8498 13.1939C17.1918 12.9064 17.4058 12.4947 17.4448 12.0494C17.4837 11.6042 17.3777 11.2013 17.0908 10.8587L16.0081 9.56751C15.8779 9.38146 15.7085 9.2262 15.5119 9.11265C15.3152 8.9991 15.0962 8.93 14.87 8.91021C14.6438 8.89043 14.4161 8.92043 14.2027 8.99811C13.9894 9.0758 13.5397 9.41405 13.3791 9.57466C9.98721 12.4016 11.0754 16.169 13.9214 19.5614C16.7674 22.9537 20.2868 24.6821 23.6642 21.8445C23.8507 21.7142 24.2624 21.3298 24.3763 21.1327C24.4902 20.9357 24.5595 20.716 24.5793 20.4892C24.5991 20.2625 24.569 20.0341 24.4911 19.8203C24.4131 19.6064 24.2893 19.4123 24.1282 19.2516Z" stroke="#2CA9D0" stroke-width="2" stroke-linecap="round" stroke-linejoin="round"/>
</svg>
